<svg width="36" height="36" xmlns="http://www.w3.org/2000/svg">
    <g fill="none" fill-rule="evenodd">
        <path d="M0 0h36v36H0z"/>
        <path d="M21.205 15.835c-.972 0-1.74.835-1.74 1.875s.785 1.875 1.74 1.875c.971 0 1.738-.835 1.738-1.875s-.784-1.875-1.738-1.875zm-6.222 0c-.972 0-1.739.835-1.739 1.875s.784 1.875 1.739 1.875c.972 0 1.739-.835 1.739-1.875.017-1.04-.767-1.875-1.739-1.875z" fill="#DCFAF8" fill-rule="nonzero"/>
        <path d="M29.489 1.653H6.648a3.5 3.5 0 0 0-3.495 3.495v22.84a3.5 3.5 0 0 0 3.495 3.495h19.33l-.904-3.12 2.182 2.012 2.062 1.892L33 35.455V5.148c-.017-1.926-1.585-3.495-3.511-3.495zm-7.705 20.71c2.233-.63 3.085-2.01 3.085-2.01a9.754 9.754 0 0 1-1.96 1.005c-.852.358-1.67.58-2.471.733a11.94 11.94 0 0 1-4.415-.017 12.977 12.977 0 0 1-2.506-.733 9.99 9.99 0 0 1-1.244-.58c-.051-.034-.103-.05-.154-.085-.034-.017-.05-.034-.068-.034-.307-.17-.477-.29-.477-.29s.818 1.347 2.983 1.995a69.228 69.228 0 0 1-1.142 1.397c-3.767-.119-5.2-2.574-5.2-2.574 0-5.437 2.455-9.852 2.455-9.852 2.455-1.824 4.773-1.773 4.773-1.773l.17.205c-3.068.87-4.465 2.216-4.465 2.216s.375-.205 1.005-.477c1.824-.802 3.273-1.006 3.87-1.074.102-.017.187-.034.29-.034 1.04-.137 2.215-.17 3.443-.034a14.17 14.17 0 0 1 5.13 1.619s-1.346-1.278-4.244-2.148l.239-.273s2.335-.05 4.772 1.773c0 0 2.455 4.415 2.455 9.852 0-.017-1.432 2.438-5.199 2.557 0 0-.614-.733-1.125-1.363z" fill="#DCFAF8" fill-rule="nonzero"/>
    </g>
</svg>
